# xmcd CD database file
#
# Track frame offsets:
#	150
#	18912
#	33592
#
# Disc length: 644 seconds
#
# Revision: 1
# Processed by: cddbd v1.5.2PL0 Copyright (c) Steve Scherf et al.
# Submitted via: CDex 1.51
#
DISCID=1a028203
DTITLE=Joseph Arthur - In The Sun
DYEAR=2000
DGENRE=Alt Rock
TTITLE0=In The Sun (Edit)
TTITLE1=The Other Side
TTITLE2=Cocaine Blind
EXTD=YEAR: 2000
EXTT0=
EXTT1=
EXTT2=
PLAYORDER=
